<mxfile host="app.diagrams.net" modified="2024-03-13T09:15:42.988Z" agent="Mozilla/5.0 (Windows NT 10.0; Win64; x64) AppleWebKit/537.36 (KHTML, like Gecko) Chrome/122.0.0.0 Safari/537.36 Edg/122.0.0.0" etag="SIB1alGaxQTDbgVGF5z_" version="24.0.5" type="device">
  <diagram name="Page-1" id="13e1069c-82ec-6db2-03f1-153e76fe0fe0">
    <mxGraphModel dx="2326" dy="679" grid="1" gridSize="10" guides="1" tooltips="1" connect="1" arrows="1" fold="1" page="1" pageScale="1" pageWidth="1100" pageHeight="850" background="none" math="0" shadow="0">
      <root>
        <mxCell id="0" />
        <mxCell id="1" parent="0" />
        <mxCell id="7baba1c4bc27f4b0-2" value=":Клиент" style="shape=umlLifeline;perimeter=lifelinePerimeter;whiteSpace=wrap;html=1;container=1;collapsible=0;recursiveResize=0;outlineConnect=0;rounded=1;shadow=0;comic=0;labelBackgroundColor=none;strokeWidth=1;fontFamily=Verdana;fontSize=12;align=center;" parent="1" vertex="1">
          <mxGeometry x="310" y="80" width="100" height="1400" as="geometry" />
        </mxCell>
        <mxCell id="7baba1c4bc27f4b0-10" value="" style="html=1;points=[];perimeter=orthogonalPerimeter;rounded=0;shadow=0;comic=0;labelBackgroundColor=none;strokeWidth=1;fontFamily=Verdana;fontSize=12;align=center;" parent="7baba1c4bc27f4b0-2" vertex="1">
          <mxGeometry x="45" y="110" width="10" height="510" as="geometry" />
        </mxCell>
        <mxCell id="Ztveh8d8P-JCP1g_wq0y-25" value="Проверка&lt;br&gt;&amp;nbsp;корректности&amp;nbsp;&lt;br&gt;данных" style="html=1;verticalAlign=bottom;endArrow=block;labelBackgroundColor=none;fontFamily=Verdana;fontSize=12;elbow=vertical;edgeStyle=orthogonalEdgeStyle;curved=1;entryX=1;entryY=0.286;entryPerimeter=0;" parent="7baba1c4bc27f4b0-2" edge="1">
          <mxGeometry relative="1" as="geometry">
            <mxPoint x="55.379999999999995" y="200" as="sourcePoint" />
            <mxPoint x="54.999999999999886" y="237.9000000000001" as="targetPoint" />
            <Array as="points">
              <mxPoint x="104.99999999999989" y="199.9000000000001" />
              <mxPoint x="104.99999999999989" y="237.9000000000001" />
            </Array>
          </mxGeometry>
        </mxCell>
        <mxCell id="NJObePyXrfsjr6sr__3I-10" value="Переход на &lt;br&gt;домашнюю страницу" style="html=1;verticalAlign=bottom;endArrow=open;dashed=1;endSize=8;curved=0;rounded=0;" parent="7baba1c4bc27f4b0-2" edge="1">
          <mxGeometry x="0.0054" relative="1" as="geometry">
            <mxPoint x="40" y="580.5" as="sourcePoint" />
            <mxPoint x="-120" y="580" as="targetPoint" />
            <Array as="points">
              <mxPoint x="-75" y="580" />
            </Array>
            <mxPoint as="offset" />
          </mxGeometry>
        </mxCell>
        <mxCell id="NJObePyXrfsjr6sr__3I-11" value="" style="endArrow=none;html=1;rounded=0;" parent="7baba1c4bc27f4b0-2" edge="1">
          <mxGeometry width="50" height="50" relative="1" as="geometry">
            <mxPoint x="-430" y="640" as="sourcePoint" />
            <mxPoint x="530" y="640" as="targetPoint" />
          </mxGeometry>
        </mxCell>
        <mxCell id="NJObePyXrfsjr6sr__3I-16" value="Переход на страницу&lt;div&gt;счетов и транзакций&lt;/div&gt;" style="html=1;verticalAlign=bottom;endArrow=block;labelBackgroundColor=none;fontFamily=Verdana;fontSize=12;edgeStyle=elbowEdgeStyle;elbow=vertical;" parent="7baba1c4bc27f4b0-2" edge="1">
          <mxGeometry relative="1" as="geometry">
            <mxPoint x="-124" y="679.33" as="sourcePoint" />
            <mxPoint x="45" y="679.33" as="targetPoint" />
            <Array as="points">
              <mxPoint x="-25" y="679.33" />
            </Array>
          </mxGeometry>
        </mxCell>
        <mxCell id="NJObePyXrfsjr6sr__3I-35" value="" style="html=1;points=[];perimeter=orthogonalPerimeter;rounded=0;shadow=0;comic=0;labelBackgroundColor=none;strokeWidth=1;fontFamily=Verdana;fontSize=12;align=center;" parent="7baba1c4bc27f4b0-2" vertex="1">
          <mxGeometry x="45" y="1060" width="10" height="340" as="geometry" />
        </mxCell>
        <mxCell id="NJObePyXrfsjr6sr__3I-37" value="Переход на&lt;br&gt;домашнюю страницу" style="html=1;verticalAlign=bottom;endArrow=block;labelBackgroundColor=none;fontFamily=Verdana;fontSize=12;edgeStyle=elbowEdgeStyle;elbow=horizontal;" parent="7baba1c4bc27f4b0-2" edge="1">
          <mxGeometry relative="1" as="geometry">
            <mxPoint x="-124" y="1080" as="sourcePoint" />
            <mxPoint x="45" y="1080" as="targetPoint" />
            <Array as="points">
              <mxPoint x="-25" y="1080" />
            </Array>
          </mxGeometry>
        </mxCell>
        <mxCell id="NJObePyXrfsjr6sr__3I-38" value="Отображение &lt;br&gt;домашней страницы" style="html=1;verticalAlign=bottom;endArrow=open;dashed=1;endSize=8;curved=0;rounded=0;" parent="7baba1c4bc27f4b0-2" edge="1">
          <mxGeometry x="0.0054" relative="1" as="geometry">
            <mxPoint x="45" y="1111.17" as="sourcePoint" />
            <mxPoint x="-115" y="1111" as="targetPoint" />
            <Array as="points">
              <mxPoint x="-70" y="1110.67" />
            </Array>
            <mxPoint as="offset" />
          </mxGeometry>
        </mxCell>
        <mxCell id="NJObePyXrfsjr6sr__3I-39" value="Выбор кнопки добавления&lt;br&gt;&amp;nbsp;новой транзакции" style="html=1;verticalAlign=bottom;endArrow=block;labelBackgroundColor=none;fontFamily=Verdana;fontSize=12;edgeStyle=elbowEdgeStyle;elbow=vertical;" parent="7baba1c4bc27f4b0-2" edge="1">
          <mxGeometry relative="1" as="geometry">
            <mxPoint x="-124" y="1150.67" as="sourcePoint" />
            <mxPoint x="45" y="1150.67" as="targetPoint" />
            <Array as="points">
              <mxPoint x="-25" y="1150.67" />
            </Array>
          </mxGeometry>
        </mxCell>
        <mxCell id="NJObePyXrfsjr6sr__3I-26" value="Проверка &lt;br&gt;корректности&lt;br&gt;&amp;nbsp;данных" style="html=1;verticalAlign=bottom;endArrow=block;labelBackgroundColor=none;fontFamily=Verdana;fontSize=12;elbow=vertical;edgeStyle=orthogonalEdgeStyle;curved=1;exitX=1.038;exitY=0.345;exitPerimeter=0;" parent="7baba1c4bc27f4b0-2" edge="1">
          <mxGeometry relative="1" as="geometry">
            <mxPoint x="54.999999999999886" y="840.0000000000001" as="sourcePoint" />
            <mxPoint x="55.379999999999995" y="878.1" as="targetPoint" />
            <Array as="points">
              <mxPoint x="109.99999999999989" y="840.0000000000001" />
              <mxPoint x="109.99999999999989" y="878.0000000000001" />
            </Array>
          </mxGeometry>
        </mxCell>
        <mxCell id="zm04QIqgpTMS23avLhUN-5" value="Проверка &lt;br&gt;корректности&lt;br&gt;&amp;nbsp;данных" style="html=1;verticalAlign=bottom;endArrow=block;labelBackgroundColor=none;fontFamily=Verdana;fontSize=12;elbow=vertical;edgeStyle=orthogonalEdgeStyle;curved=1;exitX=1.038;exitY=0.345;exitPerimeter=0;" edge="1" parent="7baba1c4bc27f4b0-2">
          <mxGeometry relative="1" as="geometry">
            <mxPoint x="54.999999999999886" y="1240" as="sourcePoint" />
            <mxPoint x="55.379999999999995" y="1278.1" as="targetPoint" />
            <Array as="points">
              <mxPoint x="109.99999999999989" y="1240" />
              <mxPoint x="109.99999999999989" y="1278" />
            </Array>
          </mxGeometry>
        </mxCell>
        <mxCell id="zm04QIqgpTMS23avLhUN-6" value="Возвращение результатов" style="html=1;verticalAlign=bottom;endArrow=open;dashed=1;endSize=8;curved=0;rounded=0;" edge="1" parent="7baba1c4bc27f4b0-2">
          <mxGeometry x="0.0054" relative="1" as="geometry">
            <mxPoint x="45" y="1280" as="sourcePoint" />
            <mxPoint x="-115" y="1280" as="targetPoint" />
            <Array as="points">
              <mxPoint x="-70" y="1280" />
            </Array>
            <mxPoint as="offset" />
          </mxGeometry>
        </mxCell>
        <mxCell id="7baba1c4bc27f4b0-3" value=":Сервер" style="shape=umlLifeline;perimeter=lifelinePerimeter;whiteSpace=wrap;html=1;container=1;collapsible=0;recursiveResize=0;outlineConnect=0;rounded=1;shadow=0;comic=0;labelBackgroundColor=none;strokeWidth=1;fontFamily=Verdana;fontSize=12;align=center;" parent="1" vertex="1">
          <mxGeometry x="510" y="77.5" width="100" height="1402.5" as="geometry" />
        </mxCell>
        <mxCell id="7baba1c4bc27f4b0-13" value="" style="html=1;points=[];perimeter=orthogonalPerimeter;rounded=0;shadow=0;comic=0;labelBackgroundColor=none;strokeWidth=1;fontFamily=Verdana;fontSize=12;align=center;" parent="7baba1c4bc27f4b0-3" vertex="1">
          <mxGeometry x="45" y="112.5" width="10" height="507.5" as="geometry" />
        </mxCell>
        <mxCell id="NJObePyXrfsjr6sr__3I-15" value="" style="html=1;points=[];perimeter=orthogonalPerimeter;rounded=0;shadow=0;comic=0;labelBackgroundColor=none;strokeWidth=1;fontFamily=Verdana;fontSize=12;align=center;" parent="7baba1c4bc27f4b0-3" vertex="1">
          <mxGeometry x="45" y="670" width="10" height="350" as="geometry" />
        </mxCell>
        <mxCell id="NJObePyXrfsjr6sr__3I-36" value="" style="html=1;points=[];perimeter=orthogonalPerimeter;rounded=0;shadow=0;comic=0;labelBackgroundColor=none;strokeWidth=1;fontFamily=Verdana;fontSize=12;align=center;" parent="7baba1c4bc27f4b0-3" vertex="1">
          <mxGeometry x="45" y="1080" width="10" height="320" as="geometry" />
        </mxCell>
        <mxCell id="NJObePyXrfsjr6sr__3I-53" value="Открытие страницы" style="html=1;verticalAlign=bottom;endArrow=open;dashed=1;endSize=8;curved=0;rounded=0;" parent="7baba1c4bc27f4b0-3" edge="1">
          <mxGeometry relative="1" as="geometry">
            <mxPoint x="40" y="712.5" as="sourcePoint" />
            <mxPoint x="-140" y="712.5" as="targetPoint" />
            <Array as="points">
              <mxPoint x="-100" y="712.5" />
            </Array>
          </mxGeometry>
        </mxCell>
        <mxCell id="7baba1c4bc27f4b0-4" value=":База данных" style="shape=umlLifeline;perimeter=lifelinePerimeter;whiteSpace=wrap;html=1;container=1;collapsible=0;recursiveResize=0;outlineConnect=0;rounded=1;shadow=0;comic=0;labelBackgroundColor=none;strokeWidth=1;fontFamily=Verdana;fontSize=12;align=center;" parent="1" vertex="1">
          <mxGeometry x="710" y="77.5" width="100" height="1402.5" as="geometry" />
        </mxCell>
        <mxCell id="7baba1c4bc27f4b0-16" value="" style="html=1;points=[];perimeter=orthogonalPerimeter;rounded=0;shadow=0;comic=0;labelBackgroundColor=none;strokeWidth=1;fontFamily=Verdana;fontSize=12;align=center;" parent="7baba1c4bc27f4b0-4" vertex="1">
          <mxGeometry x="45" y="272.5" width="10" height="70" as="geometry" />
        </mxCell>
        <mxCell id="NJObePyXrfsjr6sr__3I-6" value="" style="html=1;points=[];perimeter=orthogonalPerimeter;rounded=0;shadow=0;comic=0;labelBackgroundColor=none;strokeWidth=1;fontFamily=Verdana;fontSize=12;align=center;" parent="7baba1c4bc27f4b0-4" vertex="1">
          <mxGeometry x="45" y="532.5" width="10" height="70" as="geometry" />
        </mxCell>
        <mxCell id="NJObePyXrfsjr6sr__3I-31" value="" style="html=1;points=[];perimeter=orthogonalPerimeter;rounded=0;shadow=0;comic=0;labelBackgroundColor=none;strokeWidth=1;fontFamily=Verdana;fontSize=12;align=center;" parent="7baba1c4bc27f4b0-4" vertex="1">
          <mxGeometry x="45" y="922.5" width="10" height="70" as="geometry" />
        </mxCell>
        <mxCell id="NJObePyXrfsjr6sr__3I-49" value="" style="html=1;points=[];perimeter=orthogonalPerimeter;rounded=0;shadow=0;comic=0;labelBackgroundColor=none;strokeWidth=1;fontFamily=Verdana;fontSize=12;align=center;" parent="7baba1c4bc27f4b0-4" vertex="1">
          <mxGeometry x="45" y="1340" width="10" height="50" as="geometry" />
        </mxCell>
        <mxCell id="7baba1c4bc27f4b0-8" value=":Неавторизованный&lt;br&gt;пользователь" style="shape=umlLifeline;perimeter=lifelinePerimeter;whiteSpace=wrap;html=1;container=1;collapsible=0;recursiveResize=0;outlineConnect=0;rounded=1;shadow=0;comic=0;labelBackgroundColor=none;strokeWidth=1;fontFamily=Verdana;fontSize=12;align=center;" parent="1" vertex="1">
          <mxGeometry x="110" y="80" width="150" height="1400" as="geometry" />
        </mxCell>
        <mxCell id="7baba1c4bc27f4b0-9" value="" style="html=1;points=[];perimeter=orthogonalPerimeter;rounded=0;shadow=0;comic=0;labelBackgroundColor=none;strokeWidth=1;fontFamily=Verdana;fontSize=12;align=center;" parent="7baba1c4bc27f4b0-8" vertex="1">
          <mxGeometry x="70" y="110" width="10" height="510" as="geometry" />
        </mxCell>
        <mxCell id="NJObePyXrfsjr6sr__3I-13" value="" style="html=1;points=[];perimeter=orthogonalPerimeter;rounded=0;shadow=0;comic=0;labelBackgroundColor=none;strokeWidth=1;fontFamily=Verdana;fontSize=12;align=center;" parent="7baba1c4bc27f4b0-8" vertex="1">
          <mxGeometry x="70" y="670" width="10" height="340" as="geometry" />
        </mxCell>
        <mxCell id="NJObePyXrfsjr6sr__3I-34" value="" style="html=1;points=[];perimeter=orthogonalPerimeter;rounded=0;shadow=0;comic=0;labelBackgroundColor=none;strokeWidth=1;fontFamily=Verdana;fontSize=12;align=center;" parent="7baba1c4bc27f4b0-8" vertex="1">
          <mxGeometry x="70" y="1060" width="10" height="340" as="geometry" />
        </mxCell>
        <mxCell id="zm04QIqgpTMS23avLhUN-3" value="Возвращение результатов" style="html=1;verticalAlign=bottom;endArrow=open;dashed=1;endSize=8;curved=0;rounded=0;" edge="1" parent="7baba1c4bc27f4b0-8">
          <mxGeometry x="0.0054" relative="1" as="geometry">
            <mxPoint x="240" y="880" as="sourcePoint" />
            <mxPoint x="80" y="880" as="targetPoint" />
            <Array as="points">
              <mxPoint x="125" y="880" />
            </Array>
            <mxPoint as="offset" />
          </mxGeometry>
        </mxCell>
        <mxCell id="7baba1c4bc27f4b0-11" value="Заполнение формы" style="html=1;verticalAlign=bottom;endArrow=block;labelBackgroundColor=none;fontFamily=Verdana;fontSize=12;edgeStyle=elbowEdgeStyle;elbow=vertical;" parent="1" edge="1">
          <mxGeometry relative="1" as="geometry">
            <mxPoint x="190" y="280" as="sourcePoint" />
            <mxPoint x="350" y="280" as="targetPoint" />
            <Array as="points">
              <mxPoint x="270" y="280" />
            </Array>
          </mxGeometry>
        </mxCell>
        <mxCell id="Ztveh8d8P-JCP1g_wq0y-1" value="" style="shape=umlActor;verticalLabelPosition=bottom;verticalAlign=top;html=1;outlineConnect=0;" parent="1" vertex="1">
          <mxGeometry x="170" y="17.5" width="30" height="60" as="geometry" />
        </mxCell>
        <mxCell id="Ztveh8d8P-JCP1g_wq0y-8" value="Процесс регистрации" style="rounded=1;whiteSpace=wrap;html=1;fillColor=#d5e8d4;strokeColor=#82b366;" parent="1" vertex="1">
          <mxGeometry x="-120" y="373.75" width="120" height="60" as="geometry" />
        </mxCell>
        <mxCell id="Ztveh8d8P-JCP1g_wq0y-9" value="Запрос на отображение &lt;br&gt;страницы регистрации" style="html=1;verticalAlign=bottom;endArrow=block;curved=0;rounded=0;" parent="1" edge="1">
          <mxGeometry width="80" relative="1" as="geometry">
            <mxPoint x="370" y="200" as="sourcePoint" />
            <mxPoint x="550" y="201" as="targetPoint" />
          </mxGeometry>
        </mxCell>
        <mxCell id="Ztveh8d8P-JCP1g_wq0y-11" value="Передача формы&lt;br&gt;для заполнения" style="html=1;verticalAlign=bottom;endArrow=open;dashed=1;endSize=8;curved=0;rounded=0;" parent="1" edge="1">
          <mxGeometry relative="1" as="geometry">
            <mxPoint x="550" y="240" as="sourcePoint" />
            <mxPoint x="370" y="240" as="targetPoint" />
            <Array as="points">
              <mxPoint x="410" y="240" />
            </Array>
          </mxGeometry>
        </mxCell>
        <mxCell id="Ztveh8d8P-JCP1g_wq0y-12" value="Отображение &lt;br&gt;страницы регистрации" style="html=1;verticalAlign=bottom;endArrow=open;dashed=1;endSize=8;curved=0;rounded=0;" parent="1" edge="1">
          <mxGeometry relative="1" as="geometry">
            <mxPoint x="350" y="239" as="sourcePoint" />
            <mxPoint x="200" y="240" as="targetPoint" />
            <Array as="points">
              <mxPoint x="260" y="240" />
            </Array>
          </mxGeometry>
        </mxCell>
        <mxCell id="Ztveh8d8P-JCP1g_wq0y-13" value="Выбор кнопки &lt;br&gt;создание аккаунта" style="html=1;verticalAlign=bottom;endArrow=block;labelBackgroundColor=none;fontFamily=Verdana;fontSize=12;edgeStyle=elbowEdgeStyle;elbow=vertical;" parent="1" target="7baba1c4bc27f4b0-2" edge="1">
          <mxGeometry relative="1" as="geometry">
            <mxPoint x="191" y="200" as="sourcePoint" />
            <mxPoint x="340" y="200" as="targetPoint" />
            <Array as="points">
              <mxPoint x="290" y="200" />
            </Array>
          </mxGeometry>
        </mxCell>
        <mxCell id="Ztveh8d8P-JCP1g_wq0y-15" value="Передача данных формы" style="html=1;verticalAlign=bottom;endArrow=block;labelBackgroundColor=none;fontFamily=Verdana;fontSize=12;edgeStyle=elbowEdgeStyle;elbow=horizontal;" parent="1" edge="1">
          <mxGeometry relative="1" as="geometry">
            <mxPoint x="359.5" y="360" as="sourcePoint" />
            <mxPoint x="559.5" y="360" as="targetPoint" />
            <Array as="points">
              <mxPoint x="450" y="360" />
            </Array>
          </mxGeometry>
        </mxCell>
        <mxCell id="Ztveh8d8P-JCP1g_wq0y-16" value="Запрос на поиск &lt;br&gt;введенного email" style="html=1;verticalAlign=bottom;endArrow=block;labelBackgroundColor=none;fontFamily=Verdana;fontSize=12;edgeStyle=elbowEdgeStyle;elbow=vertical;" parent="1" edge="1">
          <mxGeometry relative="1" as="geometry">
            <mxPoint x="570" y="360" as="sourcePoint" />
            <mxPoint x="750" y="360" as="targetPoint" />
            <Array as="points">
              <mxPoint x="650" y="360" />
            </Array>
          </mxGeometry>
        </mxCell>
        <mxCell id="Ztveh8d8P-JCP1g_wq0y-22" value="Возвращение&lt;br&gt;результатов поиска" style="html=1;verticalAlign=bottom;endArrow=open;dashed=1;endSize=8;curved=0;rounded=0;" parent="1" edge="1">
          <mxGeometry relative="1" as="geometry">
            <mxPoint x="555" y="400" as="sourcePoint" />
            <mxPoint x="370" y="400" as="targetPoint" />
            <Array as="points">
              <mxPoint x="415" y="400" />
            </Array>
          </mxGeometry>
        </mxCell>
        <mxCell id="Ztveh8d8P-JCP1g_wq0y-17" value="Возвращение&lt;br&gt;результатов поиска" style="html=1;verticalAlign=bottom;endArrow=open;dashed=1;endSize=8;curved=0;rounded=0;" parent="1" edge="1">
          <mxGeometry relative="1" as="geometry">
            <mxPoint x="750" y="400" as="sourcePoint" />
            <mxPoint x="570" y="400" as="targetPoint" />
            <Array as="points">
              <mxPoint x="610" y="400" />
            </Array>
          </mxGeometry>
        </mxCell>
        <mxCell id="Ztveh8d8P-JCP1g_wq0y-23" value="Возвращение сообщения,&amp;nbsp;&lt;br&gt;что на этот email&lt;br&gt;уже есть зарегистрированный&lt;br&gt;аккаунт" style="html=1;verticalAlign=bottom;endArrow=open;dashed=1;endSize=8;curved=0;rounded=0;" parent="1" edge="1">
          <mxGeometry y="-10" relative="1" as="geometry">
            <mxPoint x="350" y="480" as="sourcePoint" />
            <mxPoint x="190" y="480" as="targetPoint" />
            <Array as="points">
              <mxPoint x="220" y="480" />
            </Array>
            <mxPoint as="offset" />
          </mxGeometry>
        </mxCell>
        <mxCell id="Ztveh8d8P-JCP1g_wq0y-18" value="email найден" style="shape=umlFrame;whiteSpace=wrap;html=1;pointerEvents=0;" parent="1" vertex="1">
          <mxGeometry x="80" y="410" width="560" height="110" as="geometry" />
        </mxCell>
        <mxCell id="Ztveh8d8P-JCP1g_wq0y-21" value="иначе" style="shape=umlFrame;whiteSpace=wrap;html=1;pointerEvents=0;" parent="1" vertex="1">
          <mxGeometry x="80" y="520" width="560" height="80" as="geometry" />
        </mxCell>
        <mxCell id="Ztveh8d8P-JCP1g_wq0y-26" value="Проверка&lt;br&gt;&amp;nbsp;корректности&amp;nbsp;&lt;br&gt;данных" style="html=1;verticalAlign=bottom;endArrow=block;labelBackgroundColor=none;fontFamily=Verdana;fontSize=12;elbow=vertical;edgeStyle=orthogonalEdgeStyle;curved=1;entryX=1;entryY=0.286;entryPerimeter=0;" parent="1" edge="1">
          <mxGeometry relative="1" as="geometry">
            <mxPoint x="560.38" y="540" as="sourcePoint" />
            <mxPoint x="559.9999999999999" y="577.9000000000001" as="targetPoint" />
            <Array as="points">
              <mxPoint x="609.9999999999999" y="539.9000000000001" />
              <mxPoint x="609.9999999999999" y="577.9000000000001" />
            </Array>
          </mxGeometry>
        </mxCell>
        <mxCell id="Ztveh8d8P-JCP1g_wq0y-27" value="Возвращение&lt;br&gt;результатов" style="html=1;verticalAlign=bottom;endArrow=open;dashed=1;endSize=8;curved=0;rounded=0;" parent="1" edge="1">
          <mxGeometry x="0.0054" relative="1" as="geometry">
            <mxPoint x="550" y="559.5" as="sourcePoint" />
            <mxPoint x="365" y="559.5" as="targetPoint" />
            <Array as="points">
              <mxPoint x="410" y="559.5" />
            </Array>
            <mxPoint as="offset" />
          </mxGeometry>
        </mxCell>
        <mxCell id="NJObePyXrfsjr6sr__3I-1" value="Возвращение&lt;br&gt;результатов" style="html=1;verticalAlign=bottom;endArrow=open;dashed=1;endSize=8;curved=0;rounded=0;" parent="1" edge="1">
          <mxGeometry x="0.0054" relative="1" as="geometry">
            <mxPoint x="550" y="559.5" as="sourcePoint" />
            <mxPoint x="365" y="559.5" as="targetPoint" />
            <Array as="points">
              <mxPoint x="410" y="559.5" />
            </Array>
            <mxPoint as="offset" />
          </mxGeometry>
        </mxCell>
        <mxCell id="NJObePyXrfsjr6sr__3I-2" value="Отображение активной&lt;br&gt;кнопки создания аккаунта" style="html=1;verticalAlign=bottom;endArrow=open;dashed=1;endSize=8;curved=0;rounded=0;" parent="1" edge="1">
          <mxGeometry x="0.0054" relative="1" as="geometry">
            <mxPoint x="350" y="560" as="sourcePoint" />
            <mxPoint x="190" y="559.5" as="targetPoint" />
            <Array as="points">
              <mxPoint x="235" y="559.5" />
            </Array>
            <mxPoint as="offset" />
          </mxGeometry>
        </mxCell>
        <mxCell id="NJObePyXrfsjr6sr__3I-3" value="Нажатие кнопки &lt;br&gt;создания аккаунта" style="html=1;verticalAlign=bottom;endArrow=block;labelBackgroundColor=none;fontFamily=Verdana;fontSize=12;edgeStyle=elbowEdgeStyle;elbow=vertical;" parent="1" edge="1">
          <mxGeometry relative="1" as="geometry">
            <mxPoint x="190" y="630" as="sourcePoint" />
            <mxPoint x="350" y="630" as="targetPoint" />
            <Array as="points">
              <mxPoint x="270" y="630" />
            </Array>
          </mxGeometry>
        </mxCell>
        <mxCell id="NJObePyXrfsjr6sr__3I-4" value="Перенаправление данных" style="html=1;verticalAlign=bottom;endArrow=block;labelBackgroundColor=none;fontFamily=Verdana;fontSize=12;edgeStyle=elbowEdgeStyle;elbow=vertical;" parent="1" edge="1">
          <mxGeometry relative="1" as="geometry">
            <mxPoint x="370" y="630" as="sourcePoint" />
            <mxPoint x="550" y="630" as="targetPoint" />
            <Array as="points">
              <mxPoint x="450" y="630" />
            </Array>
          </mxGeometry>
        </mxCell>
        <mxCell id="NJObePyXrfsjr6sr__3I-5" value="Добавление данных в базу" style="html=1;verticalAlign=bottom;endArrow=block;labelBackgroundColor=none;fontFamily=Verdana;fontSize=12;edgeStyle=elbowEdgeStyle;elbow=vertical;" parent="1" edge="1">
          <mxGeometry relative="1" as="geometry">
            <mxPoint x="570" y="630" as="sourcePoint" />
            <mxPoint x="750" y="630" as="targetPoint" />
            <Array as="points">
              <mxPoint x="650" y="630" />
            </Array>
          </mxGeometry>
        </mxCell>
        <mxCell id="NJObePyXrfsjr6sr__3I-7" value="Результат сохранения" style="html=1;verticalAlign=bottom;endArrow=open;dashed=1;endSize=8;curved=0;rounded=0;" parent="1" edge="1">
          <mxGeometry x="0.0054" relative="1" as="geometry">
            <mxPoint x="755" y="660" as="sourcePoint" />
            <mxPoint x="570" y="660" as="targetPoint" />
            <Array as="points">
              <mxPoint x="615" y="660" />
            </Array>
            <mxPoint as="offset" />
          </mxGeometry>
        </mxCell>
        <mxCell id="NJObePyXrfsjr6sr__3I-8" value="Возвращение результатов" style="html=1;verticalAlign=bottom;endArrow=open;dashed=1;endSize=8;curved=0;rounded=0;" parent="1" edge="1">
          <mxGeometry x="0.0054" relative="1" as="geometry">
            <mxPoint x="550" y="660" as="sourcePoint" />
            <mxPoint x="365" y="660" as="targetPoint" />
            <Array as="points">
              <mxPoint x="410" y="660" />
            </Array>
            <mxPoint as="offset" />
          </mxGeometry>
        </mxCell>
        <mxCell id="NJObePyXrfsjr6sr__3I-12" value="Процесс создания счёта" style="rounded=1;whiteSpace=wrap;html=1;fillColor=#d5e8d4;strokeColor=#82b366;" parent="1" vertex="1">
          <mxGeometry x="-120" y="890" width="120" height="60" as="geometry" />
        </mxCell>
        <mxCell id="NJObePyXrfsjr6sr__3I-14" value="" style="html=1;points=[];perimeter=orthogonalPerimeter;rounded=0;shadow=0;comic=0;labelBackgroundColor=none;strokeWidth=1;fontFamily=Verdana;fontSize=12;align=center;" parent="1" vertex="1">
          <mxGeometry x="355" y="750" width="10" height="340" as="geometry" />
        </mxCell>
        <mxCell id="NJObePyXrfsjr6sr__3I-17" value="Отображение страницы" style="html=1;verticalAlign=bottom;endArrow=open;dashed=1;endSize=8;curved=0;rounded=0;" parent="1" edge="1">
          <mxGeometry x="0.0054" relative="1" as="geometry">
            <mxPoint x="355" y="790.5" as="sourcePoint" />
            <mxPoint x="195" y="790" as="targetPoint" />
            <Array as="points">
              <mxPoint x="240" y="790" />
            </Array>
            <mxPoint as="offset" />
          </mxGeometry>
        </mxCell>
        <mxCell id="NJObePyXrfsjr6sr__3I-18" value="Выбор кнопки &lt;br&gt;добавления нового счёта" style="html=1;verticalAlign=bottom;endArrow=block;labelBackgroundColor=none;fontFamily=Verdana;fontSize=12;edgeStyle=elbowEdgeStyle;elbow=horizontal;" parent="1" edge="1">
          <mxGeometry relative="1" as="geometry">
            <mxPoint x="186" y="830" as="sourcePoint" />
            <mxPoint x="355" y="830" as="targetPoint" />
            <Array as="points">
              <mxPoint x="285" y="830" />
            </Array>
          </mxGeometry>
        </mxCell>
        <mxCell id="NJObePyXrfsjr6sr__3I-19" value="Отображение формы&lt;br&gt;для создания нового счёта" style="html=1;verticalAlign=bottom;endArrow=open;dashed=1;endSize=8;curved=0;rounded=0;" parent="1" edge="1">
          <mxGeometry x="0.0054" relative="1" as="geometry">
            <mxPoint x="355" y="870.21" as="sourcePoint" />
            <mxPoint x="195" y="869.71" as="targetPoint" />
            <Array as="points">
              <mxPoint x="240" y="869.71" />
            </Array>
            <mxPoint as="offset" />
          </mxGeometry>
        </mxCell>
        <mxCell id="NJObePyXrfsjr6sr__3I-25" value="Перенаправление данных" style="html=1;verticalAlign=bottom;endArrow=block;labelBackgroundColor=none;fontFamily=Verdana;fontSize=12;edgeStyle=elbowEdgeStyle;elbow=vertical;" parent="1" edge="1">
          <mxGeometry relative="1" as="geometry">
            <mxPoint x="365" y="1020" as="sourcePoint" />
            <mxPoint x="550" y="1020" as="targetPoint" />
            <Array as="points">
              <mxPoint x="445" y="1020" />
            </Array>
          </mxGeometry>
        </mxCell>
        <mxCell id="NJObePyXrfsjr6sr__3I-27" value="Добавление данных в базу" style="html=1;verticalAlign=bottom;endArrow=block;labelBackgroundColor=none;fontFamily=Verdana;fontSize=12;edgeStyle=elbowEdgeStyle;elbow=vertical;" parent="1" edge="1">
          <mxGeometry relative="1" as="geometry">
            <mxPoint x="570" y="1020" as="sourcePoint" />
            <mxPoint x="750" y="1020" as="targetPoint" />
            <Array as="points">
              <mxPoint x="650" y="1020" />
            </Array>
          </mxGeometry>
        </mxCell>
        <mxCell id="NJObePyXrfsjr6sr__3I-28" value="Результат сохранения" style="html=1;verticalAlign=bottom;endArrow=open;dashed=1;endSize=8;curved=0;rounded=0;" parent="1" edge="1">
          <mxGeometry x="0.0054" relative="1" as="geometry">
            <mxPoint x="755" y="1060" as="sourcePoint" />
            <mxPoint x="570" y="1060" as="targetPoint" />
            <Array as="points">
              <mxPoint x="615" y="1060" />
            </Array>
            <mxPoint as="offset" />
          </mxGeometry>
        </mxCell>
        <mxCell id="NJObePyXrfsjr6sr__3I-29" value="Возвращение результатов" style="html=1;verticalAlign=bottom;endArrow=open;dashed=1;endSize=8;curved=0;rounded=0;" parent="1" edge="1">
          <mxGeometry x="0.0054" relative="1" as="geometry">
            <mxPoint x="550" y="1060" as="sourcePoint" />
            <mxPoint x="365" y="1060" as="targetPoint" />
            <Array as="points">
              <mxPoint x="410" y="1060" />
            </Array>
            <mxPoint as="offset" />
          </mxGeometry>
        </mxCell>
        <mxCell id="NJObePyXrfsjr6sr__3I-30" value="Переход на&amp;nbsp;страницу&lt;div&gt;транзакций и счетов&lt;/div&gt;" style="html=1;verticalAlign=bottom;endArrow=open;dashed=1;endSize=8;curved=0;rounded=0;" parent="1" edge="1">
          <mxGeometry x="0.0054" relative="1" as="geometry">
            <mxPoint x="350" y="1060.5" as="sourcePoint" />
            <mxPoint x="190" y="1060" as="targetPoint" />
            <Array as="points">
              <mxPoint x="235" y="1060" />
            </Array>
            <mxPoint as="offset" />
          </mxGeometry>
        </mxCell>
        <mxCell id="NJObePyXrfsjr6sr__3I-32" value="" style="endArrow=none;html=1;rounded=0;" parent="1" edge="1">
          <mxGeometry width="50" height="50" relative="1" as="geometry">
            <mxPoint x="-120" y="1120" as="sourcePoint" />
            <mxPoint x="840" y="1120" as="targetPoint" />
          </mxGeometry>
        </mxCell>
        <mxCell id="NJObePyXrfsjr6sr__3I-33" value="Процесс создания новой транзакции" style="rounded=1;whiteSpace=wrap;html=1;fillColor=#d5e8d4;strokeColor=#82b366;" parent="1" vertex="1">
          <mxGeometry x="-120" y="1275" width="120" height="60" as="geometry" />
        </mxCell>
        <mxCell id="NJObePyXrfsjr6sr__3I-40" value="Отображение формы для&lt;br&gt;создания транзакции&lt;br&gt;с выбором счета и категории" style="html=1;verticalAlign=bottom;endArrow=open;dashed=1;endSize=8;curved=0;rounded=0;" parent="1" edge="1">
          <mxGeometry x="0.0054" relative="1" as="geometry">
            <mxPoint x="355" y="1280.5" as="sourcePoint" />
            <mxPoint x="195" y="1280" as="targetPoint" />
            <Array as="points">
              <mxPoint x="240" y="1280" />
            </Array>
            <mxPoint as="offset" />
          </mxGeometry>
        </mxCell>
        <mxCell id="NJObePyXrfsjr6sr__3I-45" value="Добавление данных в базу" style="html=1;verticalAlign=bottom;endArrow=block;labelBackgroundColor=none;fontFamily=Verdana;fontSize=12;edgeStyle=elbowEdgeStyle;elbow=vertical;" parent="1" edge="1">
          <mxGeometry relative="1" as="geometry">
            <mxPoint x="570" y="1420" as="sourcePoint" />
            <mxPoint x="750" y="1420" as="targetPoint" />
            <Array as="points">
              <mxPoint x="650" y="1420" />
            </Array>
          </mxGeometry>
        </mxCell>
        <mxCell id="NJObePyXrfsjr6sr__3I-46" value="Результат сохранения" style="html=1;verticalAlign=bottom;endArrow=open;dashed=1;endSize=8;curved=0;rounded=0;" parent="1" edge="1">
          <mxGeometry x="0.0054" relative="1" as="geometry">
            <mxPoint x="755" y="1460" as="sourcePoint" />
            <mxPoint x="570" y="1460" as="targetPoint" />
            <Array as="points">
              <mxPoint x="615" y="1460" />
            </Array>
            <mxPoint as="offset" />
          </mxGeometry>
        </mxCell>
        <mxCell id="NJObePyXrfsjr6sr__3I-47" value="Возвращение результатов" style="html=1;verticalAlign=bottom;endArrow=open;dashed=1;endSize=8;curved=0;rounded=0;" parent="1" edge="1">
          <mxGeometry x="0.0054" relative="1" as="geometry">
            <mxPoint x="550" y="1460" as="sourcePoint" />
            <mxPoint x="365" y="1460" as="targetPoint" />
            <Array as="points">
              <mxPoint x="410" y="1460" />
            </Array>
            <mxPoint as="offset" />
          </mxGeometry>
        </mxCell>
        <mxCell id="NJObePyXrfsjr6sr__3I-48" value="Переход на&lt;br&gt;домашнюю страницу" style="html=1;verticalAlign=bottom;endArrow=open;dashed=1;endSize=8;curved=0;rounded=0;" parent="1" edge="1">
          <mxGeometry x="0.0054" relative="1" as="geometry">
            <mxPoint x="350" y="1460.5" as="sourcePoint" />
            <mxPoint x="190" y="1460" as="targetPoint" />
            <Array as="points">
              <mxPoint x="235" y="1460" />
            </Array>
            <mxPoint as="offset" />
          </mxGeometry>
        </mxCell>
        <mxCell id="NJObePyXrfsjr6sr__3I-50" value="" style="endArrow=none;html=1;rounded=0;" parent="1" edge="1">
          <mxGeometry width="50" height="50" relative="1" as="geometry">
            <mxPoint x="-120" y="1490" as="sourcePoint" />
            <mxPoint x="840" y="1490" as="targetPoint" />
          </mxGeometry>
        </mxCell>
        <mxCell id="NJObePyXrfsjr6sr__3I-52" value="Запрос на отображение &lt;br&gt;страницы счетов и транзакций" style="html=1;verticalAlign=bottom;endArrow=block;curved=0;rounded=0;" parent="1" edge="1">
          <mxGeometry width="80" relative="1" as="geometry">
            <mxPoint x="365" y="760" as="sourcePoint" />
            <mxPoint x="550" y="761" as="targetPoint" />
          </mxGeometry>
        </mxCell>
        <mxCell id="NJObePyXrfsjr6sr__3I-54" value="Запрос на отображение страницы &lt;br&gt;создания нового счёта" style="html=1;verticalAlign=bottom;endArrow=block;curved=0;rounded=0;" parent="1" edge="1">
          <mxGeometry width="80" relative="1" as="geometry">
            <mxPoint x="365" y="830" as="sourcePoint" />
            <mxPoint x="550" y="831" as="targetPoint" />
          </mxGeometry>
        </mxCell>
        <mxCell id="NJObePyXrfsjr6sr__3I-55" value="Передача формы&lt;br&gt;для заполнения" style="html=1;verticalAlign=bottom;endArrow=open;dashed=1;endSize=8;curved=0;rounded=0;" parent="1" edge="1">
          <mxGeometry relative="1" as="geometry">
            <mxPoint x="550" y="870" as="sourcePoint" />
            <mxPoint x="370" y="870" as="targetPoint" />
            <Array as="points">
              <mxPoint x="410" y="870" />
            </Array>
          </mxGeometry>
        </mxCell>
        <mxCell id="NJObePyXrfsjr6sr__3I-56" value="Запрос на отображение &lt;br&gt;домашней страницы" style="html=1;verticalAlign=bottom;endArrow=block;curved=0;rounded=0;" parent="1" edge="1">
          <mxGeometry width="80" relative="1" as="geometry">
            <mxPoint x="365" y="1160" as="sourcePoint" />
            <mxPoint x="550" y="1161" as="targetPoint" />
          </mxGeometry>
        </mxCell>
        <mxCell id="NJObePyXrfsjr6sr__3I-57" value="Открытие домашней страницы" style="html=1;verticalAlign=bottom;endArrow=open;dashed=1;endSize=8;curved=0;rounded=0;" parent="1" edge="1">
          <mxGeometry relative="1" as="geometry">
            <mxPoint x="550" y="1190" as="sourcePoint" />
            <mxPoint x="365" y="1190" as="targetPoint" />
            <Array as="points">
              <mxPoint x="405" y="1190" />
            </Array>
          </mxGeometry>
        </mxCell>
        <mxCell id="NJObePyXrfsjr6sr__3I-58" value="Запрос на отображение страницы &lt;br&gt;создания новой транзакции" style="html=1;verticalAlign=bottom;endArrow=block;curved=0;rounded=0;" parent="1" edge="1">
          <mxGeometry width="80" relative="1" as="geometry">
            <mxPoint x="365" y="1234" as="sourcePoint" />
            <mxPoint x="550" y="1235" as="targetPoint" />
          </mxGeometry>
        </mxCell>
        <mxCell id="NJObePyXrfsjr6sr__3I-59" value="Передача формы&lt;br&gt;для заполнения" style="html=1;verticalAlign=bottom;endArrow=open;dashed=1;endSize=8;curved=0;rounded=0;" parent="1" edge="1">
          <mxGeometry relative="1" as="geometry">
            <mxPoint x="550" y="1274" as="sourcePoint" />
            <mxPoint x="370" y="1274" as="targetPoint" />
            <Array as="points">
              <mxPoint x="410" y="1274" />
            </Array>
          </mxGeometry>
        </mxCell>
        <mxCell id="zm04QIqgpTMS23avLhUN-2" value="Заполнение полей формы" style="html=1;verticalAlign=bottom;endArrow=block;labelBackgroundColor=none;fontFamily=Verdana;fontSize=12;edgeStyle=elbowEdgeStyle;elbow=vertical;" edge="1" parent="1">
          <mxGeometry relative="1" as="geometry">
            <mxPoint x="186" y="919.5" as="sourcePoint" />
            <mxPoint x="355" y="919.5" as="targetPoint" />
            <Array as="points">
              <mxPoint x="285" y="919.5" />
            </Array>
          </mxGeometry>
        </mxCell>
        <mxCell id="NJObePyXrfsjr6sr__3I-22" value="Нажатие кнопки &lt;br&gt;сохранения" style="html=1;verticalAlign=bottom;endArrow=block;labelBackgroundColor=none;fontFamily=Verdana;fontSize=12;edgeStyle=elbowEdgeStyle;elbow=vertical;" parent="1" edge="1">
          <mxGeometry relative="1" as="geometry">
            <mxPoint x="186" y="1020" as="sourcePoint" />
            <mxPoint x="355" y="1020" as="targetPoint" />
            <Array as="points">
              <mxPoint x="285" y="1020" />
            </Array>
          </mxGeometry>
        </mxCell>
        <mxCell id="NJObePyXrfsjr6sr__3I-42" value="Нажатие кнопки &lt;br&gt;сохранения" style="html=1;verticalAlign=bottom;endArrow=block;labelBackgroundColor=none;fontFamily=Verdana;fontSize=12;edgeStyle=elbowEdgeStyle;elbow=vertical;" parent="1" edge="1">
          <mxGeometry relative="1" as="geometry">
            <mxPoint x="186" y="1420" as="sourcePoint" />
            <mxPoint x="355" y="1420" as="targetPoint" />
            <Array as="points">
              <mxPoint x="285" y="1420" />
            </Array>
          </mxGeometry>
        </mxCell>
        <mxCell id="NJObePyXrfsjr6sr__3I-43" value="Перенаправление данных" style="html=1;verticalAlign=bottom;endArrow=block;labelBackgroundColor=none;fontFamily=Verdana;fontSize=12;edgeStyle=elbowEdgeStyle;elbow=vertical;" parent="1" edge="1">
          <mxGeometry relative="1" as="geometry">
            <mxPoint x="365" y="1420" as="sourcePoint" />
            <mxPoint x="550" y="1420" as="targetPoint" />
            <Array as="points">
              <mxPoint x="445" y="1420" />
            </Array>
          </mxGeometry>
        </mxCell>
        <mxCell id="zm04QIqgpTMS23avLhUN-4" value="Заполнение полей формы" style="html=1;verticalAlign=bottom;endArrow=block;labelBackgroundColor=none;fontFamily=Verdana;fontSize=12;edgeStyle=elbowEdgeStyle;elbow=vertical;" edge="1" parent="1">
          <mxGeometry relative="1" as="geometry">
            <mxPoint x="186" y="1320" as="sourcePoint" />
            <mxPoint x="355" y="1320" as="targetPoint" />
            <Array as="points">
              <mxPoint x="285" y="1320" />
            </Array>
          </mxGeometry>
        </mxCell>
      </root>
    </mxGraphModel>
  </diagram>
</mxfile>
